# xmcd
#
# Track frame offsets: 
#        150
#        17172
#        35723
#        56154
#        72373
#        96305
#        113953
#        135563
#        152898
#        175031
#        181553
#        197953
#
# Disc length: 2831 seconds
#
# Revision: 0
# Processed by: cddbd v1.5.2PL0 Copyright (c) Steve Scherf et al.
# Submitted via: ExactAudioCopy v0.95a4
#
DISCID=a80b0d0c
DTITLE=Giorgio Cordini - Chitarre d'autore
DYEAR=2000
DGENRE=Pop
TTITLE0=Sally
TTITLE1=Alice
TTITLE2=Vecchio Frack
TTITLE3=Il Pescatore
TTITLE4=Mio Fratello che guardi il mondo
TTITLE5=Il Cielo d'Irlanda
TTITLE6=Ti porterò Via
TTITLE7=La Canzone di Marinella - Il Canto Del Servo Pastore
TTITLE8=Dall'altra parte del vento
TTITLE9=I Miei Amici
TTITLE10=L'Anno che Verrà
TTITLE11=Un Giorno Dopo l'Altro
EXTD=
EXTT0=
EXTT1=
EXTT2=
EXTT3=
EXTT4=
EXTT5=
EXTT6=
EXTT7=
EXTT8=
EXTT9=
EXTT10=
EXTT11=
PLAYORDER=
